<?xml version="1.0" encoding="UTF-8"?><svg xmlns="http://www.w3.org/2000/svg" xmlns:xlink="http://www.w3.org/1999/xlink" version="1.1" id="Layer_1" x="0px" y="0px" viewBox="0 0 64 64" xml:space="preserve"><style type="text/css">.st0{fill:#414042;} .st1{fill:#FFFFFF;} .st2{fill:#E6E7E8;} .st3{fill:#FFB744;} .st4{fill:#D1D3D4;} .st5{fill:#A7A9AC;} .st6{fill:#DBA76A;} .st7{fill:#89D4E5;} .st8{fill:#6D6E71;} .st9{fill:#C49362;} .st10{fill:#9E744F;} .st11{fill:#CCCDCE;} .st12{fill:#58595B;} .st13{fill:#D19A62;} .st14{fill:#DEB891;} .st15{fill:#F1F2F2;} .st16{fill:none;} .st17{fill:#C49162;} .st18{fill:#4B4B4C;} .st19{fill:#BC8A5C;} .st20{fill:#E8A970;} .st21{fill:#BA885B;} .st22{fill:#EFAE73;} .st23{fill:#B78558;} .st24{fill:#FFDBBB;} .st25{fill:#A1DDFF;} .st26{fill:#E8A33F;} .st27{fill:#FFA92C;} .st28{fill:#DCF4FF;} .st29{fill:#FF2232;} .st30{fill:#FF8A98;} .st31{fill:#FFD89F;} .st32{fill:#EABF0C;} .st33{fill:#FFD503;} .st34{fill:#FF1D2E;} .st35{fill:#FFEB99;} .st36{fill:#E5BB0C;} .st37{fill:#92E0FF;} .st38{fill:#D4F5FF;} .st39{fill:#69A4B2;} .st40{fill:#CCF3FF;} .st41{fill:#82C4D8;} .st42{fill:#FF5E33;} .st43{fill:#DDDDDD;} .st44{fill:#ED5537;} .st45{fill:#FFDE17;} .st46{fill:#FF5033;} .st47{fill:#FF8B7B;} .st48{fill:#E8442E;} .st49{fill:#FFDCA9;} .st50{fill:#A8E548;} .st51{fill:#91BF40;} .st52{fill:#C7FF66;} .st53{fill:#94C63E;} .st54{fill:#4E4F4F;} .st55{fill:#8D8E91;} .st56{fill:#656666;} .st57{fill:#C8CCCE;} .st58{fill:#AFAFAF;} .st59{fill:#F8C91D;} .st60{fill:#2D2D2D;} .st61{fill:#EFBD20;} .st62{fill:#FFD357;} .st63{fill:#C99B1C;} .st64{fill:#B2871D;} .st65{fill:#FFDC6E;} .st66{fill:#DDAF1D;} .st67{fill:#D4FFFC;} .st68{opacity:0.79;fill:#D19A62;} .st69{fill:#F4EFE4;} .st70{fill:#D8D3CA;} .st71{fill:#A1D645;} .st72{fill:#CCF97D;} .st73{fill:#8DB73D;} .st74{fill:#7B9B37;} .st75{fill:#C1C1C1;} .st76{fill:#9D9FA0;} .st77{fill:#939598;} .st78{fill:#1C75BC;} .st79{fill:#1C74AF;} .st80{fill:#289BE8;} .st81{fill:#166499;} .st82{fill:#165A7F;} .st83{fill:#EF4E2E;} .st84{fill:#FF927D;} .st85{fill:#D84A32;} .st86{fill:#BC4231;} .st87{fill:#8AF1FF;} .st88{fill:#7FDEE5;} .st89{fill:#8D8F93;} .st90{fill:#2790D6;} .st91{fill:#BCBEC0;} .st92{fill:#636468;} .st93{fill:#FF2C3C;} .st94{fill:#FFE67B;} .st95{fill:#E2B807;} .st96{fill:#8DC63F;} .st97{fill:#FF3140;} .st98{fill:#EFAC6F;} .st99{fill:#B58457;} .st100{fill:#F5F6F6;} .st101{fill:#59595B;} .st102{fill:#E5E6E7;} .st103{fill:#D39337;} .st104{fill:#ED1C24;} .st105{fill:#FF6E79;} .st106{fill:#FFE1B6;} .st107{fill:#E5A13E;} .st108{fill:#B8EEFF;} .st109{fill:#D89739;} .st110{fill:#F9F9F9;} .st111{fill:#E6FAFF;}</style><path class="st13" d="M54.06 25.313H21.4a.628.628 0 0 0-.628.628V51.1c0 .346.281.627.629.627H54.06c.347 0 .628-.281.628-.627V25.94a.628.628 0 0 0-.628-.628z" fill="#D19A62"/><path class="st14" fill="#DEB891" d="M41.2 25.313v6.011l-.256-.29-.22.29-.23-.271-.232.271-.238-.271-.232.271-.23-.271-.232.271-.232-.271-.238.271-.231-.271-.231.271-.232-.271-.238.271-.231-.271-.232.271-.23-.271-.232.271-.232-.271-.23.271-.232-.271-.232.271-.231-.271-.231.271-.232-.271-.231.265-.231-.272-.225.272-.231-.272-.204.238v-5.97z"/><path class="st15" d="M52.98 26.554h-6.213a.408.408 0 0 0-.409.408v4.69c0 .224.183.407.409.407h6.214a.408.408 0 0 0 .408-.408v-4.689a.408.408 0 0 0-.408-.408z" fill="#F1F2F2"/><path class="st12" fill="#58595B" d="M46.743 26.75h.117v4.097h-.117z"/><path class="st12" fill="#58595B" d="M47.37 26.75h.117v4.097h-.117z"/><path class="st12" fill="#58595B" d="M46.955 26.75h.298v4.097h-.298z"/><path class="st12" fill="#58595B" d="M47.636 26.75h.297v4.097h-.297z"/><path class="st12" fill="#58595B" d="M48.273 26.75h.117v4.097h-.117z"/><path class="st12" fill="#58595B" d="M48.9 26.75h.118v4.097H48.9z"/><path class="st12" fill="#58595B" d="M49.921 26.75h.117v4.097h-.117z"/><path class="st12" fill="#58595B" d="M50.145 26.75h.117v4.097h-.117z"/><path class="st12" fill="#58595B" d="M50.889 26.75h.117v4.097h-.117z"/><path class="st12" fill="#58595B" d="M52.026 26.75h.117v4.097h-.117z"/><path class="st12" fill="#58595B" d="M52.25 26.75h.117v4.097h-.117z"/><path class="st12" fill="#58595B" d="M52.473 26.75h.117v4.097h-.117z"/><path class="st12" fill="#58595B" d="M51.144 26.75h.117v4.097h-.117z"/><path class="st12" fill="#58595B" d="M48.486 26.75h.298v4.097h-.298z"/><path class="st12" fill="#58595B" d="M49.167 26.75h.297v4.097h-.297z"/><path class="st12" fill="#58595B" d="M50.421 26.75h.298v4.097h-.298z"/><path class="st12" fill="#58595B" d="M51.378 26.75h.298v4.097h-.298z"/><path class="st12" fill="#58595B" d="M52.707 26.75h.298v4.097h-.298z"/><path class="st12" d="M46.942 31.108c-.136 0-.223.08-.223.207v.342c0 .127.087.206.223.206.138 0 .224-.08.224-.206v-.342c0-.128-.086-.207-.224-.207zm.11.549c0 .07-.04.11-.11.11s-.11-.04-.11-.11v-.342c0-.072.04-.112.11-.112s.11.04.11.112v.342z" fill="#58595B"/><path class="st12" d="M47.507 31.108c-.136 0-.222.08-.222.207v.342c0 .127.086.206.222.206.139 0 .224-.08.224-.206v-.342c0-.128-.085-.207-.224-.207zm.11.549c0 .07-.039.11-.11.11-.07 0-.11-.04-.11-.11v-.342c0-.072.04-.112.11-.112.071 0 .11.04.11.112v.342z" fill="#58595B"/><path class="st12" d="M48.073 31.108c-.136 0-.223.08-.223.207v.342c0 .127.087.206.223.206.138 0 .223-.08.223-.206v-.342c0-.128-.085-.207-.223-.207zm.11.549c0 .07-.04.11-.11.11s-.11-.04-.11-.11v-.342c0-.072.04-.112.11-.112s.11.04.11.112v.342z" fill="#58595B"/><path class="st12" d="M48.896 31.108c-.136 0-.222.08-.222.207v.342c0 .127.086.206.222.206.138 0 .224-.08.224-.206v-.342c0-.128-.086-.207-.224-.207zm.11.549c0 .07-.04.11-.11.11s-.11-.04-.11-.11v-.342c0-.072.04-.112.11-.112s.11.04.11.112v.342z" fill="#58595B"/><path class="st12" d="M49.461 31.108c-.135 0-.222.08-.222.207v.342c0 .127.087.206.222.206.139 0 .224-.08.224-.206v-.342c0-.128-.085-.207-.224-.207zm.111.549c0 .07-.04.11-.11.11s-.11-.04-.11-.11v-.342c0-.072.04-.112.11-.112s.11.04.11.112v.342z" fill="#58595B"/><path class="st12" d="M50.284 31.108c-.135 0-.222.08-.222.207v.342c0 .127.087.206.222.206.139 0 .224-.08.224-.206v-.342c0-.128-.085-.207-.224-.207zm.111.549c0 .07-.04.11-.11.11s-.11-.04-.11-.11v-.342c0-.072.04-.112.11-.112s.11.04.11.112v.342z" fill="#58595B"/><path class="st12" d="M50.85 31.108c-.136 0-.223.08-.223.207v.342c0 .127.087.206.223.206.138 0 .224-.08.224-.206v-.342c0-.128-.086-.207-.224-.207zm.11.549c0 .07-.04.11-.11.11s-.11-.04-.11-.11v-.342c0-.072.04-.112.11-.112s.11.04.11.112v.342z" fill="#58595B"/><path class="st12" d="M51.415 31.108c-.136 0-.222.08-.222.207v.342c0 .127.086.206.222.206.139 0 .224-.08.224-.206v-.342c0-.128-.085-.207-.224-.207zm.11.549c0 .07-.04.11-.11.11s-.11-.04-.11-.11v-.342c0-.072.04-.112.11-.112s.11.04.11.112v.342z" fill="#58595B"/><path class="st12" d="M52.238 31.108c-.135 0-.222.08-.222.207v.342c0 .127.087.206.222.206.139 0 .224-.08.224-.206v-.342c0-.128-.085-.207-.224-.207zm.111.549c0 .07-.04.11-.11.11s-.11-.04-.11-.11v-.342c0-.072.04-.112.11-.112s.11.04.11.112v.342z" fill="#58595B"/><path class="st12" d="M52.804 31.108c-.136 0-.223.08-.223.207v.342c0 .127.087.206.223.206.138 0 .224-.08.224-.206v-.342c0-.128-.086-.207-.224-.207zm.11.549c0 .07-.04.11-.11.11s-.11-.04-.11-.11v-.342c0-.072.04-.112.11-.112s.11.04.11.112v.342z" fill="#58595B"/><g><path class="st12" fill="#58595B" d="M37.334 48.296h4.471v.695h-4.471z"/><path class="st12" fill="#58595B" d="M39.382 45.646l-1.035-1.788-1.034 1.788h.659v2.108h.75v-2.108z"/><path class="st12" fill="#58595B" d="M41.826 45.646l-1.034-1.788-1.035 1.788h.66v2.108h.75v-2.108z"/><path class="st12" d="M47.57 45.541c0-.93-.932-1.683-2.083-1.683s-2.084.753-2.084 1.683h1.914v2.561c0 .294-.23.533-.51.533s-.51-.239-.51-.533a.174.174 0 0 0-.17-.178c-.095 0-.171.08-.171.178 0 .49.381.889.85.889s.851-.399.851-.889v-2.56h1.914z" fill="#58595B"/><path class="st12" d="M51.487 45.52v-1.662H50l-.226.499.396.083.052.012-.061.138-.312.64.181-.615-.443-.084-.112-.022.035-.129.144-.522h-.506v1.662c0 .587.435 1.068 1 1.15v1.95h-.632c-.094 0-.17.082-.17.185s.076.186.17.186h1.602c.094 0 .17-.083.17-.186s-.076-.186-.17-.186h-.63v-1.948c.564-.083.999-.564.999-1.15z" fill="#58595B"/><g><path class="st12" d="M51.899 50.556H36.9a1.616 1.616 0 0 1-1.616-1.613v-5.038c0-.89.725-1.613 1.616-1.613H51.9c.89 0 1.616.724 1.616 1.613v5.038c0 .89-.725 1.613-1.616 1.613zM36.9 42.802c-.61 0-1.106.495-1.106 1.103v5.038c0 .609.496 1.104 1.106 1.104H51.9c.61 0 1.105-.495 1.105-1.104v-5.038c0-.608-.496-1.103-1.105-1.103H36.9z" fill="#58595B"/></g></g><g><path class="st16" d="M35.795 43.905v3.9c.458-.197.915-.388 1.373-.602.273-.127.536-.263.804-.395v-1.162h-.66l1.035-1.788 1.035 1.788h-.66v.793c.503-.257.994-.523 1.478-.793h-.443l1.035-1.788.625 1.08a43.547 43.547 0 0 0 3.241-2.136h-7.757c-.61 0-1.106.495-1.106 1.103z" fill="none"/><path class="st17" d="M41.826 45.646h-.659v2.108h-.75v-2.108H40.2c-.484.27-.975.536-1.477.793v1.315h-.751v-.946c-.268.132-.531.268-.804.395-.458.214-.915.405-1.373.602v1.138c0 .609.497 1.104 1.106 1.104H51.9c.61 0 1.105-.495 1.105-1.104v-5.038c0-.608-.496-1.103-1.105-1.103h-7.24a43.547 43.547 0 0 1-3.242 2.136l.41.708zm-.02 3.345h-4.472v-.695h4.471v.695zm7.342-5.133h.506l-.144.522-.035.13.112.02.443.085-.181.614.312-.639.061-.138-.052-.012-.396-.083.226-.5h1.487v1.663c0 .587-.435 1.068-1 1.15v1.95h.631c.094 0 .17.082.17.185s-.076.186-.17.186h-1.602c-.094 0-.17-.083-.17-.186s.076-.186.17-.186h.631v-1.948c-.564-.083-1-.564-1-1.15v-1.663zm-3.661 0c1.15 0 2.084.753 2.084 1.683h-1.914v2.561c0 .49-.381.889-.85.889-.47 0-.851-.399-.851-.889 0-.098.076-.178.17-.178.094 0 .17.08.17.178 0 .294.23.533.51.533.282 0 .51-.239.51-.533v-2.56h-1.913c0-.93.933-1.684 2.084-1.684z" fill="#C49162"/><path class="st17" d="M45.341 42.292H51.9c.89 0 1.616.724 1.616 1.613v5.038c0 .89-.725 1.613-1.616 1.613H36.9a1.616 1.616 0 0 1-1.616-1.613v-.915c-5.085 2.117-10.12 3.179-14.474 3.213.084.28.334.487.642.487h32.555a.68.68 0 0 0 .68-.68V30.386c-1.154 3.955-4.5 8.224-9.347 11.907z" fill="#C49162"/><path class="st18" fill="#4B4B4C" d="M37.334 48.296h4.471v.695h-4.471z"/><path class="st18" d="M38.723 47.754V46.44c-.247.126-.5.246-.751.37v.945h.75z" fill="#4B4B4C"/><path class="st18" d="M40.416 47.754h.751v-2.108h.66l-.41-.708c-.4.24-.804.477-1.217.708h.216v2.108z" fill="#4B4B4C"/><path class="st18" d="M45.317 48.102a.523.523 0 0 1-.51.533.523.523 0 0 1-.51-.533.174.174 0 0 0-.17-.178c-.095 0-.171.08-.171.178 0 .49.381.889.85.889.47 0 .851-.399.851-.889v-2.56h1.914c0-.93-.933-1.684-2.084-1.684s-2.084.753-2.084 1.683h1.914v2.561z" fill="#4B4B4C"/><path class="st18" d="M50.147 46.67v1.95h-.63c-.095 0-.17.082-.17.185s.075.186.17.186h1.601c.094 0 .17-.083.17-.186s-.076-.186-.17-.186h-.63v-1.948c.564-.083.999-.564.999-1.15v-1.663H50l-.226.499.396.083.052.012-.061.138-.312.64.181-.615-.443-.084-.112-.022.035-.129.144-.522h-.506v1.662c0 .587.435 1.068 1 1.15z" fill="#4B4B4C"/><path class="st18" d="M36.901 50.556H51.9c.89 0 1.616-.724 1.616-1.613v-5.038c0-.89-.725-1.613-1.616-1.613H45.34c-.225.171-.451.341-.683.51h7.24c.61 0 1.106.495 1.106 1.103v5.038c0 .609-.496 1.104-1.105 1.104H36.9c-.61 0-1.106-.495-1.106-1.104v-1.138c-.17.073-.34.153-.51.223v.915c0 .89.725 1.613 1.616 1.613z" fill="#4B4B4C"/></g><g><path class="st12" fill="#58595B" d="M13.94 21.132h2.05v30.685h-2.05z"/></g><path class="st2" d="M57 55.909H7.768a1 1 0 0 1-1-1v-2.092a1 1 0 0 1 1-1H57a1 1 0 0 1 1 1v2.092a1 1 0 0 1-1 1z" fill="#E6E7E8"/><path class="st12" d="M14.332 60h-2.44a1.024 1.024 0 0 1-1.025-1.023V55.91h6.148l-1.766 3.526a1.025 1.025 0 0 1-.917.565z" fill="#58595B"/><path class="st12" d="M50.436 60h2.44c.567 0 1.025-.458 1.025-1.023V55.91h-6.147l1.766 3.526c.173.346.528.565.916.565z" fill="#58595B"/><g><ellipse class="st15" cx="14.965517" cy="12.9497719" rx="8.1970444" ry="8.1826487" fill="#F1F2F2"/><path class="st42" d="M14.966 21.9C10.022 21.9 6 17.885 6 12.95S10.022 4 14.966 4s8.965 4.015 8.965 8.95-4.022 8.95-8.965 8.95zm0-16.366c-4.097 0-7.43 3.327-7.43 7.416s3.333 7.415 7.43 7.415 7.428-3.326 7.428-7.415-3.332-7.416-7.428-7.416z" fill="#FF5E33"/></g><g><path class="st42" d="M14.966 13.461a.51.51 0 0 1-.353-.882l3.65-3.452a.513.513 0 0 1 .705.742l-3.65 3.452a.51.51 0 0 1-.352.14z" fill="#FF5E33"/></g><ellipse class="st12" cx="14.965517" cy="12.9497719" rx="1.1527094" ry="1.150685" fill="#58595B"/><g><path class="st12" d="M14.965 7.657a.375.375 0 0 1-.375-.375v-.789a.375.375 0 0 1 .75 0v.789a.375.375 0 0 1-.375.375z" fill="#58595B"/></g><g><path class="st12" d="M12.127 8.416a.376.376 0 0 1-.325-.187l-.395-.683a.376.376 0 0 1 .65-.376l.394.683a.376.376 0 0 1-.324.563z" fill="#58595B"/></g><g><path class="st12" d="M10.047 10.49a.372.372 0 0 1-.187-.05l-.683-.394a.375.375 0 1 1 .375-.649l.683.394a.375.375 0 0 1-.188.7z" fill="#58595B"/></g><g><path class="st12" d="M9.288 13.325h-.79a.375.375 0 0 1 0-.75h.79a.375.375 0 0 1 0 .75z" fill="#58595B"/></g><g><path class="st12" d="M9.365 16.553a.375.375 0 0 1-.188-.7l.683-.394a.374.374 0 1 1 .375.65l-.683.394a.372.372 0 0 1-.187.05z" fill="#58595B"/></g><g><path class="st12" d="M11.731 18.917a.375.375 0 0 1-.324-.563l.395-.683a.374.374 0 1 1 .65.375l-.396.683a.374.374 0 0 1-.325.188z" fill="#58595B"/></g><g><path class="st12" d="M14.965 19.781a.375.375 0 0 1-.375-.375v-.788a.375.375 0 0 1 .75 0v.788a.375.375 0 0 1-.375.375z" fill="#58595B"/></g><g><path class="st12" d="M18.2 18.917a.374.374 0 0 1-.325-.188l-.395-.683a.375.375 0 1 1 .65-.375l.394.683a.375.375 0 0 1-.324.563z" fill="#58595B"/></g><g><path class="st12" d="M20.566 16.553a.372.372 0 0 1-.187-.05l-.684-.395a.375.375 0 0 1 .375-.649l.684.395a.375.375 0 0 1-.188.7z" fill="#58595B"/></g><g><path class="st12" d="M21.434 13.325h-.79a.375.375 0 0 1 0-.75h.79a.375.375 0 0 1 0 .75z" fill="#58595B"/></g><g><path class="st12" d="M19.883 10.49a.374.374 0 0 1-.187-.699l.684-.394a.374.374 0 1 1 .374.65l-.684.393a.37.37 0 0 1-.187.05z" fill="#58595B"/></g><g><path class="st12" d="M17.804 8.416a.374.374 0 0 1-.324-.563l.395-.683a.376.376 0 0 1 .65.376l-.396.683a.376.376 0 0 1-.325.187z" fill="#58595B"/></g><metadata><rdf:RDF xmlns:rdf="http://www.w3.org/1999/02/22-rdf-syntax-ns#" xmlns:rdfs="http://www.w3.org/2000/01/rdf-schema#" xmlns:dc="http://purl.org/dc/elements/1.1/"><rdf:Description about="https://iconscout.com/legal#licenses" dc:title="box,storage,scale,platform,logistic,delivery,package" dc:description="box,storage,scale,platform,logistic,delivery,package" dc:publisher="Iconscout" dc:date="2018-02-13" dc:format="image/svg+xml" dc:language="en"><dc:creator><rdf:Bag><rdf:li>Amin Yusifov</rdf:li></rdf:Bag></dc:creator></rdf:Description></rdf:RDF></metadata></svg>